# MagicaVoxel @ Ephtracy

# group
o 

# material
mtllib hitsuzi.mtl
usemtl palette

# normals
vn -1 0 0
vn 1 0 0
vn 0 0 -1
vn 0 0 1
vn 0 -1 0
vn 0 1 0

# texcoords
vt 0.275391 0.5
vt 0.314453 0.5
vt 0.912109 0.5
vt 0.958984 0.5
vt 0.990234 0.5

# verts
v -2 1.8 -1.7
v -2 1.8 3.4
v -2 4 -1.7
v -2 4 3.4
v -1.7 0 -1.4
v -1.7 0 -0.7
v -1.7 0 2.3
v -1.7 0 3
v -1.7 1.8 -1.4
v -1.7 1.8 -0.7
v -1.7 1.8 2.3
v -1.7 1.8 3
v -1.1 3.4 -3.7
v -1.1 3.4 -1.7
v -1.1 4 -1.7
v -1.1 5.6 -3.7
v -1.1 5.6 -1.7
v -0.9 3.6 -3.8
v -0.9 3.6 -3.7
v -0.9 5.3 -3.8
v -0.9 5.3 -3.7
v -0.7 4.3 -3.9
v -0.7 4.3 -3.8
v -0.7 4.9 -3.9
v -0.7 4.9 -3.8
v -0.5 4.3 -4
v -0.5 4.3 -3.9
v -0.5 4.7 -4
v -0.5 4.7 -3.9
v -0.4 3.7 -3.9
v -0.4 3.7 -3.8
v -0.4 4.2 -3.9
v -0.4 4.2 -3.8
v -0.2 4 -4
v -0.2 4 -3.9
v -0.2 4.2 -4
v -0.2 4.2 -3.9
v 0.2 4.3 -4
v 0.2 4.3 -3.9
v 0.2 4.3 -3.8
v 0.2 4.7 -4
v 0.2 4.7 -3.9
v 0.2 4.9 -3.9
v 0.2 4.9 -3.8
v 1 0 -1.4
v 1 0 -0.7
v 1 0 2.3
v 1 0 3
v 1 1.8 -1.4
v 1 1.8 -0.7
v 1 1.8 2.3
v 1 1.8 3
v -1 0 -1.4
v -1 0 -0.7
v -1 0 2.3
v -1 0 3
v -1 1.8 -1.4
v -1 1.8 -0.7
v -1 1.8 2.3
v -1 1.8 3
v -0.2 4.3 -4
v -0.2 4.3 -3.9
v -0.2 4.3 -3.8
v -0.2 4.7 -4
v -0.2 4.7 -3.9
v -0.2 4.9 -3.9
v -0.2 4.9 -3.8
v 0.2 4 -4
v 0.2 4 -3.9
v 0.2 4.2 -4
v 0.2 4.2 -3.9
v 0.4 3.7 -3.9
v 0.4 3.7 -3.8
v 0.4 4.2 -3.9
v 0.4 4.2 -3.8
v 0.5 4.3 -4
v 0.5 4.3 -3.9
v 0.5 4.7 -4
v 0.5 4.7 -3.9
v 0.7 4.3 -3.9
v 0.7 4.3 -3.8
v 0.7 4.9 -3.9
v 0.7 4.9 -3.8
v 0.9 3.6 -3.8
v 0.9 3.6 -3.7
v 0.9 5.3 -3.8
v 0.9 5.3 -3.7
v 1.1 3.4 -3.7
v 1.1 3.4 -1.7
v 1.1 4 -1.7
v 1.1 5.6 -3.7
v 1.1 5.6 -1.7
v 1.7 0 -1.4
v 1.7 0 -0.7
v 1.7 0 2.3
v 1.7 0 3
v 1.7 1.8 -1.4
v 1.7 1.8 -0.7
v 1.7 1.8 2.3
v 1.7 1.8 3
v 2 1.8 -1.7
v 2 1.8 3.4
v 2 4 -1.7
v 2 4 3.4
v -0.5 4.3 -4
v -0.5 4.7 -4
v -0.2 4 -4
v -0.2 4.2 -4
v -0.2 4.3 -4
v -0.2 4.7 -4
v 0.2 4 -4
v 0.2 4.2 -4
v 0.2 4.3 -4
v 0.2 4.7 -4
v 0.5 4.3 -4
v 0.5 4.7 -4
v -0.7 4.3 -3.9
v -0.7 4.9 -3.9
v -0.5 4.3 -3.9
v -0.5 4.7 -3.9
v -0.4 3.7 -3.9
v -0.4 4.2 -3.9
v -0.2 4 -3.9
v -0.2 4.2 -3.9
v -0.2 4.7 -3.9
v -0.2 4.9 -3.9
v 0.2 4 -3.9
v 0.2 4.2 -3.9
v 0.2 4.7 -3.9
v 0.2 4.9 -3.9
v 0.4 3.7 -3.9
v 0.4 4.2 -3.9
v 0.5 4.3 -3.9
v 0.5 4.7 -3.9
v 0.7 4.3 -3.9
v 0.7 4.9 -3.9
v -0.9 3.6 -3.8
v -0.9 5.3 -3.8
v -0.7 4.3 -3.8
v -0.7 4.9 -3.8
v -0.4 3.7 -3.8
v -0.4 4.2 -3.8
v -0.2 4.3 -3.8
v -0.2 4.9 -3.8
v 0.2 4.3 -3.8
v 0.2 4.9 -3.8
v 0.4 3.7 -3.8
v 0.4 4.2 -3.8
v 0.7 4.3 -3.8
v 0.7 4.9 -3.8
v 0.9 3.6 -3.8
v 0.9 5.3 -3.8
v -1.1 3.4 -3.7
v -1.1 5.6 -3.7
v -0.9 3.6 -3.7
v -0.9 5.3 -3.7
v 0.9 3.6 -3.7
v 0.9 5.3 -3.7
v 1.1 3.4 -3.7
v 1.1 5.6 -3.7
v -2 1.8 -1.7
v -2 4 -1.7
v -1.1 3.4 -1.7
v -1.1 4 -1.7
v 1.1 3.4 -1.7
v 1.1 4 -1.7
v 2 1.8 -1.7
v 2 4 -1.7
v -1.7 0 -1.4
v -1.7 1.8 -1.4
v -1 0 -1.4
v -1 1.8 -1.4
v 1 0 -1.4
v 1 1.8 -1.4
v 1.7 0 -1.4
v 1.7 1.8 -1.4
v -1.7 0 2.3
v -1.7 1.8 2.3
v -1 0 2.3
v -1 1.8 2.3
v 1 0 2.3
v 1 1.8 2.3
v 1.7 0 2.3
v 1.7 1.8 2.3
v -1.1 4 -1.7
v -1.1 5.6 -1.7
v 1.1 4 -1.7
v 1.1 5.6 -1.7
v -1.7 0 -0.7
v -1.7 1.8 -0.7
v -1 0 -0.7
v -1 1.8 -0.7
v 1 0 -0.7
v 1 1.8 -0.7
v 1.7 0 -0.7
v 1.7 1.8 -0.7
v -1.7 0 3
v -1.7 1.8 3
v -1 0 3
v -1 1.8 3
v 1 0 3
v 1 1.8 3
v 1.7 0 3
v 1.7 1.8 3
v -2 1.8 3.4
v -2 4 3.4
v 2 1.8 3.4
v 2 4 3.4
v -1.7 0 -1.4
v -1 0 -1.4
v 1 0 -1.4
v 1.7 0 -1.4
v -1.7 0 -0.7
v -1 0 -0.7
v 1 0 -0.7
v 1.7 0 -0.7
v -1.7 0 2.3
v -1 0 2.3
v 1 0 2.3
v 1.7 0 2.3
v -1.7 0 3
v -1 0 3
v 1 0 3
v 1.7 0 3
v -2 1.8 -1.7
v 2 1.8 -1.7
v -1.7 1.8 -1.4
v -1 1.8 -1.4
v 1 1.8 -1.4
v 1.7 1.8 -1.4
v -1.7 1.8 -0.7
v -1 1.8 -0.7
v 1 1.8 -0.7
v 1.7 1.8 -0.7
v -1.7 1.8 2.3
v -1 1.8 2.3
v 1 1.8 2.3
v 1.7 1.8 2.3
v -1.7 1.8 3
v -1 1.8 3
v 1 1.8 3
v 1.7 1.8 3
v -2 1.8 3.4
v 2 1.8 3.4
v -1.1 3.4 -3.7
v 1.1 3.4 -3.7
v -1.1 3.4 -1.7
v 1.1 3.4 -1.7
v -0.9 3.6 -3.8
v 0.9 3.6 -3.8
v -0.9 3.6 -3.7
v 0.9 3.6 -3.7
v -0.4 3.7 -3.9
v 0.4 3.7 -3.9
v -0.4 3.7 -3.8
v 0.4 3.7 -3.8
v -0.2 4 -4
v 0.2 4 -4
v -0.2 4 -3.9
v 0.2 4 -3.9
v -0.5 4.3 -4
v -0.2 4.3 -4
v 0.2 4.3 -4
v 0.5 4.3 -4
v -0.7 4.3 -3.9
v -0.5 4.3 -3.9
v -0.2 4.3 -3.9
v 0.2 4.3 -3.9
v 0.5 4.3 -3.9
v 0.7 4.3 -3.9
v -0.7 4.3 -3.8
v -0.2 4.3 -3.8
v 0.2 4.3 -3.8
v 0.7 4.3 -3.8
v -2 4 -1.7
v -1.1 4 -1.7
v 1.1 4 -1.7
v 2 4 -1.7
v -2 4 3.4
v 2 4 3.4
v -0.2 4.2 -4
v 0.2 4.2 -4
v -0.4 4.2 -3.9
v -0.2 4.2 -3.9
v 0.2 4.2 -3.9
v 0.4 4.2 -3.9
v -0.4 4.2 -3.8
v 0.4 4.2 -3.8
v -0.5 4.7 -4
v -0.2 4.7 -4
v 0.2 4.7 -4
v 0.5 4.7 -4
v -0.5 4.7 -3.9
v -0.2 4.7 -3.9
v 0.2 4.7 -3.9
v 0.5 4.7 -3.9
v -0.7 4.9 -3.9
v -0.2 4.9 -3.9
v 0.2 4.9 -3.9
v 0.7 4.9 -3.9
v -0.7 4.9 -3.8
v -0.2 4.9 -3.8
v 0.2 4.9 -3.8
v 0.7 4.9 -3.8
v -0.9 5.3 -3.8
v 0.9 5.3 -3.8
v -0.9 5.3 -3.7
v 0.9 5.3 -3.7
v -1.1 5.6 -3.7
v 1.1 5.6 -3.7
v -1.1 5.6 -1.7
v 1.1 5.6 -1.7

# faces
f 1/3/1 2/3/1 3/3/1
f 3/3/1 2/3/1 4/3/1
f 5/3/1 6/3/1 9/3/1
f 9/3/1 6/3/1 10/3/1
f 7/3/1 8/3/1 11/3/1
f 11/3/1 8/3/1 12/3/1
f 13/3/1 14/3/1 15/3/1
f 13/3/1 15/3/1 16/3/1
f 16/3/1 15/3/1 17/3/1
f 18/2/1 19/2/1 20/2/1
f 20/2/1 19/2/1 21/2/1
f 22/4/1 23/4/1 24/4/1
f 24/4/1 23/4/1 25/4/1
f 26/5/1 27/5/1 28/5/1
f 28/5/1 27/5/1 29/5/1
f 30/1/1 31/1/1 32/1/1
f 32/1/1 31/1/1 33/1/1
f 34/5/1 35/5/1 36/5/1
f 36/5/1 35/5/1 37/5/1
f 38/5/1 39/5/1 41/5/1
f 39/4/1 40/4/1 42/4/1
f 41/5/1 39/5/1 42/5/1
f 42/4/1 40/4/1 43/4/1
f 43/4/1 40/4/1 44/4/1
f 45/3/1 46/3/1 49/3/1
f 49/3/1 46/3/1 50/3/1
f 47/3/1 48/3/1 51/3/1
f 51/3/1 48/3/1 52/3/1
f 57/3/2 54/3/2 53/3/2
f 58/3/2 54/3/2 57/3/2
f 59/3/2 56/3/2 55/3/2
f 60/3/2 56/3/2 59/3/2
f 64/5/2 62/5/2 61/5/2
f 65/4/2 63/4/2 62/4/2
f 65/5/2 62/5/2 64/5/2
f 66/4/2 63/4/2 65/4/2
f 67/4/2 63/4/2 66/4/2
f 70/5/2 69/5/2 68/5/2
f 71/5/2 69/5/2 70/5/2
f 74/1/2 73/1/2 72/1/2
f 75/1/2 73/1/2 74/1/2
f 78/5/2 77/5/2 76/5/2
f 79/5/2 77/5/2 78/5/2
f 82/4/2 81/4/2 80/4/2
f 83/4/2 81/4/2 82/4/2
f 86/2/2 85/2/2 84/2/2
f 87/2/2 85/2/2 86/2/2
f 90/3/2 89/3/2 88/3/2
f 91/3/2 90/3/2 88/3/2
f 92/3/2 90/3/2 91/3/2
f 97/3/2 94/3/2 93/3/2
f 98/3/2 94/3/2 97/3/2
f 99/3/2 96/3/2 95/3/2
f 100/3/2 96/3/2 99/3/2
f 103/3/2 102/3/2 101/3/2
f 104/3/2 102/3/2 103/3/2
f 105/5/3 106/5/3 109/5/3
f 109/5/3 106/5/3 110/5/3
f 107/5/3 108/5/3 111/5/3
f 111/5/3 108/5/3 112/5/3
f 113/5/3 114/5/3 115/5/3
f 115/5/3 114/5/3 116/5/3
f 117/4/3 118/4/3 119/4/3
f 119/4/3 118/4/3 120/4/3
f 121/1/3 122/1/3 123/1/3
f 123/1/3 122/1/3 124/1/3
f 120/4/3 118/4/3 125/4/3
f 125/4/3 118/4/3 126/4/3
f 121/1/3 123/1/3 127/1/3
f 121/1/3 127/1/3 131/1/3
f 127/1/3 128/1/3 131/1/3
f 131/1/3 128/1/3 132/1/3
f 129/4/3 130/4/3 134/4/3
f 133/4/3 134/4/3 135/4/3
f 134/4/3 130/4/3 136/4/3
f 135/4/3 134/4/3 136/4/3
f 137/2/3 138/2/3 139/2/3
f 139/2/3 138/2/3 140/2/3
f 137/2/3 139/2/3 141/2/3
f 141/2/3 139/2/3 142/2/3
f 142/2/3 139/2/3 143/2/3
f 140/2/3 138/2/3 144/2/3
f 142/2/3 143/2/3 145/2/3
f 143/2/3 144/2/3 145/2/3
f 144/2/3 138/2/3 146/2/3
f 145/2/3 144/2/3 146/2/3
f 137/2/3 141/2/3 147/2/3
f 142/2/3 145/2/3 148/2/3
f 148/2/3 145/2/3 149/2/3
f 147/2/3 148/2/3 149/2/3
f 146/2/3 138/2/3 150/2/3
f 137/2/3 147/2/3 151/2/3
f 149/2/3 150/2/3 151/2/3
f 147/2/3 149/2/3 151/2/3
f 150/2/3 138/2/3 152/2/3
f 151/2/3 150/2/3 152/2/3
f 153/3/3 154/3/3 155/3/3
f 155/3/3 154/3/3 156/3/3
f 153/3/3 155/3/3 157/3/3
f 156/3/3 154/3/3 158/3/3
f 153/3/3 157/3/3 159/3/3
f 157/3/3 158/3/3 159/3/3
f 158/3/3 154/3/3 160/3/3
f 159/3/3 158/3/3 160/3/3
f 161/3/3 162/3/3 163/3/3
f 163/3/3 162/3/3 164/3/3
f 161/3/3 163/3/3 165/3/3
f 161/3/3 165/3/3 167/3/3
f 165/3/3 166/3/3 167/3/3
f 167/3/3 166/3/3 168/3/3
f 169/3/3 170/3/3 171/3/3
f 171/3/3 170/3/3 172/3/3
f 173/3/3 174/3/3 175/3/3
f 175/3/3 174/3/3 176/3/3
f 177/3/3 178/3/3 179/3/3
f 179/3/3 178/3/3 180/3/3
f 181/3/3 182/3/3 183/3/3
f 183/3/3 182/3/3 184/3/3
f 187/3/4 186/3/4 185/3/4
f 188/3/4 186/3/4 187/3/4
f 191/3/4 190/3/4 189/3/4
f 192/3/4 190/3/4 191/3/4
f 195/3/4 194/3/4 193/3/4
f 196/3/4 194/3/4 195/3/4
f 199/3/4 198/3/4 197/3/4
f 200/3/4 198/3/4 199/3/4
f 203/3/4 202/3/4 201/3/4
f 204/3/4 202/3/4 203/3/4
f 207/3/4 206/3/4 205/3/4
f 208/3/4 206/3/4 207/3/4
f 209/3/5 210/3/5 213/3/5
f 213/3/5 210/3/5 214/3/5
f 211/3/5 212/3/5 215/3/5
f 215/3/5 212/3/5 216/3/5
f 217/3/5 218/3/5 221/3/5
f 221/3/5 218/3/5 222/3/5
f 219/3/5 220/3/5 223/3/5
f 223/3/5 220/3/5 224/3/5
f 225/3/5 226/3/5 227/3/5
f 227/3/5 226/3/5 228/3/5
f 228/3/5 226/3/5 229/3/5
f 229/3/5 226/3/5 230/3/5
f 225/3/5 227/3/5 231/3/5
f 228/3/5 229/3/5 232/3/5
f 232/3/5 229/3/5 233/3/5
f 230/3/5 226/3/5 234/3/5
f 232/3/5 233/3/5 235/3/5
f 233/3/5 234/3/5 235/3/5
f 225/3/5 231/3/5 235/3/5
f 231/3/5 232/3/5 235/3/5
f 235/3/5 234/3/5 236/3/5
f 236/3/5 234/3/5 237/3/5
f 234/3/5 226/3/5 238/3/5
f 237/3/5 234/3/5 238/3/5
f 225/3/5 235/3/5 239/3/5
f 236/3/5 237/3/5 240/3/5
f 240/3/5 237/3/5 241/3/5
f 238/3/5 226/3/5 242/3/5
f 225/3/5 239/3/5 243/3/5
f 241/3/5 242/3/5 243/3/5
f 240/3/5 241/3/5 243/3/5
f 239/3/5 240/3/5 243/3/5
f 242/3/5 226/3/5 244/3/5
f 243/3/5 242/3/5 244/3/5
f 245/3/5 246/3/5 247/3/5
f 247/3/5 246/3/5 248/3/5
f 249/2/5 250/2/5 251/2/5
f 251/2/5 250/2/5 252/2/5
f 253/1/5 254/1/5 255/1/5
f 255/1/5 254/1/5 256/1/5
f 257/5/5 258/5/5 259/5/5
f 259/5/5 258/5/5 260/5/5
f 261/5/5 262/5/5 266/5/5
f 266/5/5 262/5/5 267/5/5
f 263/5/5 264/5/5 268/5/5
f 268/5/5 264/5/5 269/5/5
f 266/4/5 267/4/5 271/4/5
f 265/4/5 266/4/5 271/4/5
f 271/4/5 267/4/5 272/4/5
f 269/4/5 270/4/5 273/4/5
f 268/4/5 269/4/5 273/4/5
f 273/4/5 270/4/5 274/4/5
f 279/3/6 276/3/6 275/3/6
f 279/3/6 278/3/6 277/3/6
f 279/3/6 277/3/6 276/3/6
f 280/3/6 278/3/6 279/3/6
f 284/5/6 282/5/6 281/5/6
f 285/5/6 282/5/6 284/5/6
f 287/1/6 284/1/6 283/1/6
f 287/1/6 286/1/6 285/1/6
f 287/1/6 285/1/6 284/1/6
f 288/1/6 286/1/6 287/1/6
f 293/5/6 290/5/6 289/5/6
f 294/5/6 290/5/6 293/5/6
f 295/5/6 292/5/6 291/5/6
f 296/5/6 292/5/6 295/5/6
f 301/4/6 298/4/6 297/4/6
f 302/4/6 298/4/6 301/4/6
f 303/4/6 300/4/6 299/4/6
f 304/4/6 300/4/6 303/4/6
f 307/2/6 306/2/6 305/2/6
f 308/2/6 306/2/6 307/2/6
f 311/3/6 310/3/6 309/3/6
f 312/3/6 310/3/6 311/3/6
