# MagicaVoxel @ Ephtracy

# group
o 

# material
mtllib untitled.mtl
usemtl palette

# normals
vn -1 0 0
vn 1 0 0
vn 0 0 -1
vn 0 0 1
vn 0 -1 0
vn 0 1 0

# texcoords
vt 0.373047 0.5
vt 0.896484 0.5
vt 0.900391 0.5
vt 0.904297 0.5

# verts
v -10 0 -10
v -10 0 10
v -10 0.1 -10
v -10 0.1 10
v -10 0.2 -10
v -10 0.2 10
v -10 0.3 -10
v -10 0.3 10
v 10 0 -10
v 10 0 10
v 10 0.1 -10
v 10 0.1 10
v 10 0.2 -10
v 10 0.2 10
v 10 0.3 -10
v 10 0.3 10
v -10 0 -10
v -10 0.1 -10
v -10 0.2 -10
v -10 0.3 -10
v 10 0 -10
v 10 0.1 -10
v 10 0.2 -10
v 10 0.3 -10
v -10 0 10
v -10 0.1 10
v -10 0.2 10
v -10 0.3 10
v 10 0 10
v 10 0.1 10
v 10 0.2 10
v 10 0.3 10
v -10 0 -10
v 10 0 -10
v -10 0 10
v 10 0 10
v -10 0.3 -10
v 10 0.3 -10
v -10 0.3 10
v 10 0.3 10

# faces
f 1/1/1 2/1/1 3/1/1
f 3/1/1 2/1/1 4/1/1
f 3/4/1 4/4/1 5/4/1
f 5/4/1 4/4/1 6/4/1
f 5/2/1 6/2/1 7/2/1
f 7/2/1 6/2/1 8/2/1
f 11/1/2 10/1/2 9/1/2
f 12/1/2 10/1/2 11/1/2
f 13/4/2 12/4/2 11/4/2
f 14/4/2 12/4/2 13/4/2
f 15/2/2 14/2/2 13/2/2
f 16/2/2 14/2/2 15/2/2
f 17/1/3 18/1/3 21/1/3
f 18/4/3 19/4/3 22/4/3
f 21/1/3 18/1/3 22/1/3
f 19/2/3 20/2/3 23/2/3
f 22/4/3 19/4/3 23/4/3
f 23/2/3 20/2/3 24/2/3
f 29/1/4 26/1/4 25/1/4
f 30/4/4 27/4/4 26/4/4
f 30/1/4 26/1/4 29/1/4
f 31/2/4 28/2/4 27/2/4
f 31/4/4 27/4/4 30/4/4
f 32/2/4 28/2/4 31/2/4
f 33/1/5 34/1/5 35/1/5
f 35/1/5 34/1/5 36/1/5
f 39/2/6 38/2/6 37/2/6
f 40/2/6 38/2/6 39/2/6
